<?xml version="1.0" encoding="utf-8"?>
<!-- Generator: Adobe Illustrator 18.1.1, SVG Export Plug-In . SVG Version: 6.00 Build 0)  -->
<svg version="1.1" id="Слой_1" xmlns="http://www.w3.org/2000/svg" xmlns:xlink="http://www.w3.org/1999/xlink" x="0px" y="0px"
	 viewBox="0 0 595.3 841.9" enable-background="new 0 0 595.3 841.9" xml:space="preserve">
<g>
	<path fill="#FFFFFF" d="M297.6,438.7c-12.9,0-23.4-10.5-23.4-23.4c0-12.9,10.5-23.4,23.4-23.4s23.4,10.5,23.4,23.4
		C321,428.2,310.5,438.7,297.6,438.7z"/>
	<path d="M297.6,394.6c11.4,0,20.7,9.3,20.7,20.7c0,11.4-9.3,20.7-20.7,20.7c-11.4,0-20.7-9.3-20.7-20.7
		C276.9,403.9,286.2,394.6,297.6,394.6 M297.6,389.3c-14.4,0-26,11.6-26,26s11.6,26,26,26s26-11.6,26-26S312,389.3,297.6,389.3
		L297.6,389.3z"/>
	<g>
		<path d="M286.6,424.1l-5.5-17.1h4.2l2.1,7.2c0.6,2,1.1,4,1.5,6.1h0.1c0.4-2.1,1-4.1,1.5-6l2.2-7.3h4.1l-5.8,17.1H286.6z"/>
		<path d="M298.7,407.2c1.4-0.2,3.3-0.4,5.2-0.4c3.3,0,5.4,0.6,7,1.8c1.8,1.3,2.9,3.4,2.9,6.5c0,3.3-1.2,5.5-2.8,6.9
			c-1.8,1.5-4.5,2.2-7.9,2.2c-2,0-3.4-0.1-4.4-0.3V407.2z M302.6,421.2c0.3,0.1,0.9,0.1,1.3,0.1c3.5,0,5.8-1.9,5.8-6
			c0-3.6-2.1-5.4-5.4-5.4c-0.9,0-1.4,0.1-1.8,0.2V421.2z"/>
	</g>
</g>
</svg>
