<?xml version="1.0" encoding="UTF-8" standalone="no"?>
<!-- Created with Inkscape (http://www.inkscape.org/) -->
<svg id="svg3461" xmlns:rdf="http://www.w3.org/1999/02/22-rdf-syntax-ns#" xmlns="http://www.w3.org/2000/svg" height="133.61mm" width="134.96mm" version="1.1" xmlns:cc="http://creativecommons.org/ns#" xmlns:dc="http://purl.org/dc/elements/1.1/" viewBox="0 0 478.18999 473.41683" xmlns:xlink="http://www.w3.org/1999/xlink">
 <g id="layer1" fill="#d3d3d3" transform="translate(-80.905 -275.65)">
    <a xlink:href="https://developer.mozilla.org/en-US/docs/SVG"
      target="_blank">
  <path id="CA-AB" d="m369.21 717.9c-53.522-14.135-47.759-11.978-50.938-19.061l-2.6783-5.9681 2.1718-11.051c2.2903-11.654 2.1636-14.603-0.8888-20.685-1.0369-2.0657-3.959-7.8889-6.4935-12.94-2.5346-5.0514-5.5611-12.026-6.7256-15.5-1.1645-3.4736-3.421-8.2927-5.0144-10.709-1.5933-2.4166-3.1944-6.0166-3.5579-8-0.3636-1.9834-1.9468-5.0844-3.5184-6.891s-2.8574-3.7622-2.8574-4.3456c0-0.58345-0.9348-2.3736-2.0772-3.978-1.2018-1.6877-2.4788-5.7522-3.0299-9.6436-0.6001-4.2378-1.8458-8.0253-3.3668-10.237-1.3279-1.9309-2.8725-4.733-3.4326-6.2269-0.56-1.4939-2.6046-3.7439-4.5435-5-3.4746-2.2511-4.7587-5.9188-2.55-7.2839 0.55-0.33992 1-3.1167 1-6.1707 0-5.4313 6.559-24.261 51.175-146.92l4.0341-11.09 22.145 7.3645c12.18 4.0505 30.695 9.8698 41.145 12.932 10.45 3.062 28.866 8.4543 40.924 11.983 12.058 3.5286 22.035 6.5266 22.17 6.6623 0.6596 0.65959-2.974 15.338-3.9602 15.998-0.6237 0.41736-2.2194 1.047-3.5462 1.3992-2.5095 0.6661-13.009 11.043-13.059 12.907-0.016 0.58563 1.5782 1.8311 3.5422 2.7676 3.4362 1.6386 3.6791 1.6258 6.4408-0.34077 1.5785-1.124 3.1627-2.9658 3.5205-4.093 0.3577-1.1272 0.8569-1.8429 1.1092-1.5906 0.2524 0.25236-1.3132 7.8238-3.479 16.825-5.1132 21.251-10.624 44.268-18.166 75.867-3.3472 14.025-7.1693 30-8.4936 35.5-6.6776 27.733-12.622 52.506-15.837 66-16.972 71.239-15.538 65.554-16.484 65.359-0.3754-0.077-6.9826-1.8045-14.683-3.838z"/>
</a>
  <a xlink:href="https://developer.mozilla.org/en-US/docs/SVG"
      target="_blank" >
  <path id="path3341" d="m156.71 665.62c-6.3865-4.0625-16-16.636-16-20.927 0-2.3855-0.5908-3.2095-2.9361-4.0947-2.9692-1.1208-5.242-5.0119-6.5522-11.218-0.3484-1.65-1.6487-4.575-2.8896-6.5-1.2408-1.925-3.0433-5.525-4.0055-8-0.9621-2.475-3.5757-7.5451-5.808-11.267-2.4498-4.0846-4.5598-9.2376-5.3231-13-0.6956-3.4282-1.8679-7.7086-2.6052-9.512-1.2833-3.1388-1.2133-3.383 1.6395-5.714 1.6391-1.3393 3.8453-2.4513 4.9027-2.4711 1.9776-0.037 7.9367 5.6925 17.578 16.9 3.025 3.5166 5.9565 6.8821 6.5144 7.4789 0.5579 0.59675 2.5713 3.11 4.4741 5.585 1.9029 2.475 3.7196 4.725 4.037 5 1.3981 1.2111 3.9381 10.038 4.572 15.888 0.6065 5.5979 1.3041 7.1969 5.6375 12.922 5.7685 7.6212 6.2584 8.7452 7.2182 16.561 0.3965 3.2291 1.3225 7.5759 2.0576 9.6596 0.7352 2.0837 1.071 4.0542 0.7463 4.3789-1.5017 1.5016-9.943 0.43849-13.257-1.6697z"/>
  </a>
  <a xlink:href="https://developer.mozilla.org/en-US/docs/SVG"
      target="_blank" >
  <path id="path3343" d="m315.21 703.31c-0.9122-0.266-21.511-6.6679-37.5-11.655-5.5145-1.7199-63.946-23.627-88-32.992-4.125-1.6061-8.85-3.4141-10.5-4.0177-3.8207-1.3978-4.4659-2.4091-4.4847-7.0297-0.011-2.5875-0.6701-4.3024-2.1156-5.5-5.8132-4.8166-7.8997-7.2311-7.8997-9.1414 0-1.1543-0.3886-2.0988-0.8636-2.0988-2.4249 0-5.9209-5.3176-6.5338-9.9383-0.9928-7.4838-4.3283-13.995-10.231-19.972-5.2845-5.3512-5.337-5.4642-4.7541-10.25 0.4777-3.9215 0.3012-4.8392-0.9305-4.8392-0.836 0-1.6699-0.35418-1.8533-0.78707-0.1833-0.43289-2.4708-2.0269-5.0833-3.5422s-4.7844-3.2986-4.8265-3.9629c-0.042-0.66432-0.2628-2.1078-0.4904-3.2078-0.5583-2.6983-0.6117-4.4759-0.4567-15.207 0.1293-8.9588 0.2149-9.276 3.1713-11.764 2.7956-2.3523 2.951-2.8072 1.9453-5.6921-0.6011-1.7245-1.093-4.9093-1.093-7.0773 0-2.9883-0.9774-5.3352-4.0405-9.7019-3.3858-4.8268-3.9486-6.3108-3.4732-9.159 0.312-1.8694 1.4896-4.1738 2.6168-5.1209 2.2741-1.9108 2.0615-3.4807-1.392-10.278-1.7387-3.4222-2.0278-5.8711-2.0014-16.954 0.03-12.53 0.1143-13.037 2.5786-15.5 1.4012-1.4005 4.9378-3.4464 7.8591-4.5464 7.1892-2.707 12.853-7.8399 12.853-11.648 0-3.9934 2.161-8.6898 5.8813-12.782 2.7822-3.06 3.1187-4.0941 3.1187-9.5847 0-5.5706-0.2832-6.4069-2.9842-8.8136-3.4263-3.0528-9.4059-14.364-11.054-20.91-0.97-3.8523-0.7584-5.9704 1.5694-15.705 2.3762-9.9377 2.5639-11.913 1.606-16.904-0.5966-3.1084-1.3393-9.9266-1.6505-15.152-0.3113-5.225-0.7649-10.446-1.0081-11.602-0.2432-1.1562-0.6976-3.8562-1.0098-6s-1.9051-9.5228-3.5397-16.398c-1.6347-6.875-3.1953-13.51-3.468-14.744-0.31-1.4028-1.873-2.8193-4.17-3.779-7.0127-2.9301-7.9305-2.8956-9.8597 0.37032-1.2962 2.1942-3.4278 3.6065-7.855 5.2042-3.3419 1.206-7.8481 3.0378-10.014 4.0706-2.1658 1.0328-4.042 1.8778-4.1694 1.8778-0.12736 0 0.16458-1.4625 0.64875-3.25 1.3542-4.9994 0.46689-17.044-1.4737-20.006-2.0562-3.1382-1.7804-12.421 0.3551-11.952 0.73014 0.16045 10.834 6.512 22.452 14.115 31.672 20.724 66.287 41.781 83.125 50.566 8.25 4.3044 15.45 8.1435 16 8.5313 2.721 1.9186 33.566 17.538 45 22.787 7.15 3.2824 22.675 9.6937 34.5 14.247 11.825 4.5537 21.859 8.5895 22.298 8.9685 0.4388 0.37897 0.342 1.77-0.2152 3.0912s-5.7863 15.677-11.62 31.902c-5.8339 16.225-12.342 34.225-14.462 40-23.148 63.047-28 77.315-28 82.339 0 3.007-0.6323 6.1183-1.4931 7.3473-2.1652 3.0913-0.9323 7.4153 2.7981 9.8132 4.6624 2.997 10.706 14.21 11.428 21.202 0.3949 3.8264 1.5391 7.2346 3.4298 10.216 1.5605 2.4606 2.8372 4.9236 2.8372 5.4733 0 0.54973 1.0589 2.1491 2.3531 3.5542 1.2943 1.4051 2.931 4.7038 3.6372 7.3305s1.6809 5.021 2.1659 5.3208c1.2686 0.78404 5.4339 9.3728 6.2577 12.903 0.3851 1.65 3.9064 9.4906 7.8253 17.424 4.1198 8.3397 7.1302 15.721 7.1369 17.5 0.01 1.692-0.774 7.2946-1.7344 12.45-1.8002 9.6638-1.5384 13.828 1.1249 17.893 1.5516 2.368 1.4709 3.1748-0.2666 2.668z"/>
  </a>
  <a xlink:href="https://developer.mozilla.org/en-US/docs/SVG"
      target="_blank" >
  <path id="path3345" d="m85.952 514.61c-4.0612-9.4021-5.5574-20.584-4.8963-36.592 0.3848-9.3175 1.0378-14.895 1.8598-15.886 0.69672-0.83949 1.2735-2.2528 1.2818-3.1408 0.0243-2.604 4.3457-2.497 8.345 0.20654 4.7877 3.2366 11.17 9.5817 11.17 11.105 0 0.65884-4.05 5.4172-9 10.574-10.517 10.956-10.656 11.526-6.5124 26.507 1.3682 4.9461 2.4932 9.7805 2.5 10.743 0.0248 3.4942-2.5401 1.5942-4.7479-3.5171z"/>
  </a>
  <a xlink:href="https://developer.mozilla.org/en-US/docs/SVG"
      target="_blank" >
  <path id="CA-SK" d="m529.63 748.49c-0.2292-0.2128-4.0167-0.691-8.4167-1.0627s-9.125-0.8417-10.5-1.0445-5.425-0.6555-9-1.006-7.625-0.7959-9-0.9897c-1.375-0.1939-5.425-0.6505-9-1.0148s-17.525-3.1382-31-6.1642-25.175-5.6462-26-5.8227c-4.5446-0.9723-7.1169-1.5529-13-2.9342-3.575-0.8394-7.4-1.6829-8.5-1.8744s-5.5024-1.1509-9.7832-2.1319c-6.3238-1.4492-7.6873-2.0916-7.2721-3.4259 0.477-1.5329 8.3409-33.841 9.0407-37.142 0.1749-0.825 1.7306-7.35 3.4572-14.5 1.7265-7.15 4.7469-19.75 6.7118-28 1.965-8.25 5.8124-24.225 8.5499-35.5s5.1564-21.396 5.3754-22.49c0.2189-1.0947 1.7548-7.6197 3.4131-14.5s5.0595-21.06 7.5582-31.51 6.0621-25.3 7.9186-33 5.019-20.827 7.0278-29.172l3.6524-15.172 5.1751 0.42821c2.8463 0.23552 7.3837 0.76276 10.083 1.1716 2.6994 0.40889 8.4026 0.32908 12.674-0.17735 7.3287-0.86898 8.1077-0.76729 13.845 1.8073 5.6663 2.5429 8.0735 2.7282 8.0735 0.6216 0-1.1242-21.247-11.471-26.5-12.905-2.2-0.60055-5.0125-1.0944-6.25-1.0975-1.2375-0.003-3.15-0.90558-4.25-2.0056-2.2049-2.2049-5.1012-2.5514-8.0657-0.96482-2.2816 1.2211-2.3272 0.89536-0.8432-6.0244 0.8561-3.992 1.4484-4.9866 2.75-4.6181 1.4822 0.41957 8.5483 1.8731 15.231 3.133 1.3355 0.25178 3.3281 0.64622 4.4281 0.87652 3.3367 0.69861 44.82 8.7747 47.5 9.2474 1.375 0.24253 7.9 1.5147 14.5 2.8271s13.8 2.5582 16 2.7686c3.8523 0.36833 3.9944 0.50936 3.8475 3.8186-0.084 1.8899-1.3091 11.761-2.7228 21.936s-2.8546 20.75-3.2019 23.5c-0.6196 4.9047-1.8348 7.5-3.5119 7.5-1.5333 0-7.5203 6.6429-8.8243 9.791-0.948 2.2886-1.0096 3.9507-0.2374 6.4002 2.2242 7.0546 1.8338 10.509-1.5864 14.038-2.2184 2.2888-2.9187 3.7099-2.3121 4.6914 0.7073 1.1444 1.4634 0.90908 4.0365-1.2561 1.7414-1.4653 3.8323-2.6642 4.6464-2.6642 1.5014 0 1.4826 3.1509-0.1367 23-0.2468 3.025-0.7058 9.55-1.02 14.5s-0.7597 11.025-0.9899 13.5c-0.2303 2.475-0.686 9-1.0128 14.5s-0.7705 11.575-0.9861 13.5c-0.2157 1.925-0.6749 8.45-1.0206 14.5-0.3458 6.05-0.7861 12.125-0.9785 13.5-0.1925 1.375-0.6594 7.9-1.0375 14.5-0.3782 6.6-0.8086 12.675-0.9565 13.5s-0.5956 7.125-0.995 14-0.8494 13.175-1 14-0.6006 7.125-1 14-0.8769 13.3-1.0612 14.279c-0.1842 0.9783-0.4293 4.6908-0.5445 8.25-0.1871 5.7784-1.1619 7.7703-2.9776 6.0846z"/>
</a>
 </g>
</svg>
